<svg width="16" height="16" viewBox="0 0 16 16" fill="none" xmlns="http://www.w3.org/2000/svg">
    <path d="M1.33337 8C1.33337 11.682 4.31804 14.6667 8.00004 14.6667C11.682 14.6667 14.6667 11.682 14.6667 8C14.6667 4.318 11.682 1.33333 8.00004 1.33333C4.31804 1.33333 1.33337 4.318 1.33337 8Z" stroke="white" stroke-linecap="round" stroke-linejoin="round"/>
    <path d="M8.66675 1.36667C8.66675 1.36667 10.6668 4 10.6668 8C10.6668 12 8.66675 14.6333 8.66675 14.6333M7.33342 14.6333C7.33342 14.6333 5.33342 12 5.33342 8C5.33342 4 7.33342 1.36667 7.33342 1.36667M1.75342 10.3333H14.2468M1.75342 5.66667H14.2468" stroke="white" stroke-linecap="round" stroke-linejoin="round"/>
</svg>
