<svg width="221" height="14" viewBox="0 0 221 14" fill="none" xmlns="http://www.w3.org/2000/svg">
<path d="M0.949997 14V0H2.2585L9.12281 10.92H8.43638L15.2363 0H16.5448V14H15.0218V2.22H15.3865L9.12281 12.22H8.37203L2.06545 2.22H2.47301V14H0.949997Z" fill="white"/>
<path d="M31.4335 6.26H39.3703V7.52H31.4335V6.26ZM31.6051 12.72H40.6359V14H30.0177V0H40.3142V1.28H31.6051V12.72Z" fill="white"/>
<path d="M52.9476 14V0H59.0611C60.6628 0 62.0643 0.3 63.2655 0.9C64.4811 1.48667 65.4249 2.30667 66.097 3.36C66.7692 4.41333 67.1052 5.62667 67.1052 7C67.1052 8.37333 66.7692 9.58667 66.097 10.64C65.4249 11.6933 64.4811 12.52 63.2655 13.12C62.0643 13.7067 60.6628 14 59.0611 14H52.9476ZM54.535 12.72H58.9753C60.3053 12.72 61.4565 12.48 62.4289 12C63.4157 11.5067 64.1808 10.8333 64.7242 9.98C65.2676 9.11333 65.5393 8.12 65.5393 7C65.5393 5.86667 65.2676 4.87333 64.7242 4.02C64.1808 3.16667 63.4157 2.5 62.4289 2.02C61.4565 1.52667 60.3053 1.28 58.9753 1.28H54.535V12.72Z" fill="white"/>
<path d="M79.2502 14V0H80.8375V14H79.2502Z" fill="white"/>
<path d="M91.901 14L98.7653 0H100.331L107.196 14H105.522L99.2158 0.860001H99.8593L93.5527 14H91.901ZM94.6038 10.26L95.0758 9.06H103.806L104.278 10.26H94.6038Z" fill="white"/>
<path d="M130.052 14L136.916 0H138.482L145.346 14H143.673L137.367 0.860001H138.01L131.704 14H130.052ZM132.755 10.26L133.227 9.06H141.957L142.429 10.26H132.755Z" fill="white"/>
<path d="M156.411 14V0H162.031C163.304 0 164.398 0.193334 165.313 0.580001C166.228 0.953334 166.929 1.5 167.415 2.22C167.916 2.92667 168.166 3.78667 168.166 4.8C168.166 5.78667 167.916 6.64 167.415 7.36C166.929 8.06667 166.228 8.61333 165.313 9C164.398 9.37333 163.304 9.56 162.031 9.56H157.29L157.998 8.88V14H156.411ZM166.664 14L162.803 8.92H164.519L168.402 14H166.664ZM157.998 9L157.29 8.3H161.988C163.49 8.3 164.626 7.99333 165.399 7.38C166.185 6.76667 166.578 5.90667 166.578 4.8C166.578 3.68 166.185 2.81333 165.399 2.2C164.626 1.58667 163.49 1.28 161.988 1.28H157.29L157.998 0.580001V9Z" fill="white"/>
<path d="M180.493 14V0H181.801L188.666 10.92H187.979L194.779 0H196.088V14H194.565V2.22H194.929L188.666 12.22H187.915L181.608 2.22H182.016V14H180.493Z" fill="white"/>
<path d="M213.143 14V8.8L213.507 9.72L207.137 0H208.831L214.43 8.54H213.529L219.128 0H220.715L214.344 9.72L214.709 8.8V14H213.143Z" fill="white"/>
</svg>
